<?xml version="1.0" encoding="utf-8"?>
<!-- Generator: Adobe Illustrator 16.0.0, SVG Export Plug-In . SVG Version: 6.00 Build 0)  -->
<!DOCTYPE svg PUBLIC "-//W3C//DTD SVG 1.1//EN" "http://www.w3.org/Graphics/SVG/1.1/DTD/svg11.dtd">
<svg version="1.1" id="Layer_1" xmlns="http://www.w3.org/2000/svg" xmlns:xlink="http://www.w3.org/1999/xlink" x="0px" y="0px"
	 width="1681px" height="1681px" viewBox="0 0 1681 1681" enable-background="new 0 0 1681 1681" xml:space="preserve">
<g>
	<path fill="#9A4993" d="M1552.99,509.853c0-26.778-5.707-50.923-17.559-71.118c-11.414-20.193-28.535-36.874-51.362-50.044
		C1294.422,279.379,1104.336,170.07,914.689,60.76c-51.362-29.414-100.531-28.535-151.454,1.316
		c-75.508,44.34-453.923,261.203-566.306,326.615c-46.535,26.778-68.923,68.044-68.923,121.603v660.25
		c0,26.34,5.707,49.606,16.682,69.802c11.415,20.634,28.975,38.192,52.241,51.802c112.822,65.41,490.798,281.837,566.306,326.613
		c50.923,29.847,100.529,31.163,151.454,1.316c189.646-109.748,379.732-218.619,569.38-327.93
		c23.704-13.609,40.825-30.73,52.239-51.802c10.975-20.195,16.682-43.462,16.682-69.802V509.853z"/>
	<path fill="#6A1577" d="M842.255,837.784L143.81,1239.904c11.415,20.633,28.974,38.193,52.242,51.804
		c112.822,65.409,490.798,281.834,566.306,326.612c50.922,29.854,100.531,31.17,151.454,1.317
		c189.647-109.751,379.731-218.621,569.38-327.93c23.705-13.61,40.826-30.729,52.24-51.804L842.255,837.784z"/>
	<path fill="#6A1577" d="M635.486,956.752c40.829,71.118,117.214,118.969,204.573,118.969c88.238,0,165.063-48.291,205.45-120.286
		L842.255,837.784L635.486,956.752z"/>
	<path fill="#813084" d="M1552.993,509.853c0-26.778-5.71-50.923-17.561-71.118L842.255,837.784l694.054,402.124
		c10.975-20.196,16.685-43.462,16.685-69.802V509.853z"/>
	<g>
		<path fill="#FFFFFF" d="M1045.51,955.435c-40.385,71.555-117.209,120.286-205.45,120.286
			c-87.799,0-164.183-47.852-204.571-118.969c-19.755-34.68-31.17-74.189-31.17-116.773c0-130.383,105.359-235.742,235.741-235.742
			c86.922,0,162.869,47.411,203.696,117.65l205.888-118.529c-82.09-141.355-234.863-236.618-410.021-236.618
			c-261.643,0-473.239,212.035-473.239,473.238c0,85.604,22.827,166.38,62.776,235.742
			c81.653,141.795,235.303,237.497,410.9,237.497c176.04,0,329.688-96.14,411.341-238.813L1045.51,955.435z M1305.836,728.035
			h-46.974v226.962h46.974V728.035z M1409.878,728.035h-46.973v226.962h46.973V728.035z"/>
		<path fill="#FFFFFF" d="M1448.071,766.228h-226.962v46.973h226.962V766.228z M1448.071,869.83h-226.962v46.973h226.962V869.83z"/>
	</g>
</g>
</svg>
